# xmcd CD database file
#
# Track frame offsets:
#	150
#	19847
#	36778
#	50893
#	67260
#	85758
#	101151
#	125115
#	142647
#	166239
#	189760
#	206704
#	232866
#	257171
#	277910
#
# Disc length: 3990 seconds
#
# Revision: 0
# Processed by: cddbd v1.5.2PL0 Copyright (c) Steve Scherf et al.
# Submitted via: CDex 1.70beta2
#
DISCID=d10f940f
DTITLE=Various Artist - na linija na dobriot zvuk
DYEAR=2012
DGENRE=Jazz
TTITLE0=bungalove - so eu e vosi
TTITLE1=caravan palace - jolie coquine
TTITLE2=adrew sisters - rum and coca cola
TTITLE3=mo'horizons - ai mi morena
TTITLE4=kero one - bossa soundcheck
TTITLE5=mister scruff - get a move on
TTITLE6=s-tone inc - ponta da pedra
TTITLE7=nekta - no need to rumble
TTITLE8=brother groove - cantaloupe island
TTITLE9=jojo effect - the beat goes on
TTITLE10=lizziy parks - all that
TTITLE11=uptown funk empire feat. janice and ange - you've got to have freedom
TTITLE12=babel gilberto - aganjur
TTITLE13=gato barbieri - si tu me quisieras
TTITLE14=michael buble - quando, quando, quando
EXTD=YEAR: 2012
EXTT0=
EXTT1=
EXTT2=
EXTT3=
EXTT4=
EXTT5=
EXTT6=
EXTT7=
EXTT8=
EXTT9=
EXTT10=
EXTT11=
EXTT12=
EXTT13=
EXTT14=
PLAYORDER=
